<svg id="Layer_1" data-name="Layer 1" xmlns="http://www.w3.org/2000/svg" viewBox="0 0 256 135"><defs><style>.cls-1{fill:#fff;}.cls-2{fill:#28a6fa;}</style></defs><title>Artboard 1</title><path d="M236.55,108.07c-4.59-.26-7.62,3.75-11.48,6.47-6.14,4.35-13,4.63-20,2.14-1.53-.55-2.76-1.37-4.66-.55a23,23,0,0,1-19.37-.5,6.56,6.56,0,0,0-6.88.38,16.9,16.9,0,0,1-16.76.35,6.25,6.25,0,0,0-6-.16c-6.9,3-13.92,3.15-20.77-.15a5.62,5.62,0,0,0-5.6.22,17.75,17.75,0,0,1-15.46.65,5.81,5.81,0,0,0-5.58.44c-5.83,3.13-11.91,2.91-17.86.54a6.28,6.28,0,0,0-5.59.13,24,24,0,0,1-19,.73,8.83,8.83,0,0,0-6.68.12,21.32,21.32,0,0,1-17-.55,35.22,35.22,0,0,0-10.45-2.76c-11.36-1.63-18.13-8.93-19-20.43-.1-1.31-.91-2-1.48-3-2.76-4.8-3.29-9.81-.29-14.61,1.56-2.5,2.12-4.22.2-7C4.23,66.81,4.93,62.6,7,58.65c.71-1.37,1.89-2.36.81-4.46-4.51-8.73-2-16.88,6.62-21.3a13.25,13.25,0,0,0,5.82-5.68c3.93-6.84,10.7-9.19,18-8.32,9.1,1.1,17.46,1.67,26.67-1.74,7.67-2.83,17.07,1.23,25.37-2.95,2-1,5-.49,7.24.9,1.83,1.16,3.35.67,5.16.09,6.58-2.13,12.88-2.28,17.74,3.73,1.26,1.56,2.39,1.3,3.87.56,7.68-3.84,15.51-6,23.9-2.11,1.41.66,2.56-.32,3.71-.92,5.8-3,11.47-3.5,16.72,1.08,1.86,1.61,3.15.85,4.82-.27,6.6-4.45,13.69-5.79,21.31-2.88a4.64,4.64,0,0,0,3.76.33c10.16-3.87,19.77-4.38,27.62,5,.63.76,2,.93,3.15,1.21,8.5,2.22,13.61,8.92,12.81,17.6-.23,2.53.71,3.49,2.5,4.67C252.4,48.4,253.25,53,248,61c-.69,1.06-1.58,1.74,0,3.26,7.6,7.51,7.83,13.92.7,21.89-2.65,3-4.66,5.15-2.56,9.67C247.8,99.42,242.9,105.21,236.55,108.07Z"/><path class="cls-1" d="M16.39,73.25c-4.21,3.42-9,7-7.15,12.44C11,90.79,12.16,95.84,13.43,101c1.4,5.65,7,8.88,12.82,9.92,5.21.94,10.27,1.86,15.2,4,4.57,2,9.54,1.42,14-.87a5.92,5.92,0,0,1,6-.15,18.72,18.72,0,0,0,19.46-1.12c1.82-1.2,3-1.12,4.87,0,6.51,3.85,13.09,3.52,19.17-1,1.73-1.27,2.61-1,4.26-.07,5.54,3.27,11.13,3.39,16.16-1,1.85-1.62,3-1,4.7,0,7.31,4.58,14.8,4.6,22.06,0,2.07-1.32,3.24-1.1,5.12.33,5.3,4,11.89,4,17-.31,2.29-1.93,3.59-1.78,5.93-.36,5.83,3.52,12.25,5,18.46,1.46,2.61-1.47,4.09-1.48,6.52-.1,6.59,3.72,15.65,2.7,19.73-2.66a10.4,10.4,0,0,1,8.07-4.48,10.55,10.55,0,0,0,8.7-6.74c1.54-3.87-2.82-4.67-4.44-6.92a4.81,4.81,0,0,1-.3-.83c3.84-2.38,7.7-5,10.28-8.93,4.69-7.19,2.52-12.93-5.76-15.13-2.49-.66-5.08-.94-8.43-1.54,3.32-2.24,6.74-2.07,9.21-4.12,2.63-2.17,5.48-4.26,4.7-8.14-.74-3.66-3.66-5.41-7.05-6.32-2.83-.77-5.7-1.41-8.87-2.18,8.64-5.11,9-11.77,1.4-16.86a11.6,11.6,0,0,0-6.59-2c-1.61,0-3-.22-3.52-2-1.06-3.84-4.34-4.94-7.57-5.61-7.3-1.51-14.27-1.28-19.17,5.83-2.38-5.77-6.52-7.24-13.56-5.16a22.8,22.8,0,0,0-13,9.92c-2.43-10.16-10.34-13.17-21-3.18-5.51-8.47-14.63-6.78-30.49,5.63,1.4-10.21-3.34-14.08-13.57-11.08a10.39,10.39,0,0,0-2.33.89c-1.81,1.05-3.23.6-5-.39-4.87-2.7-9.93-2.05-13.67,1.94-1.72,1.83-2.78,1.9-5,.93-7.8-3.47-15.29-2.73-21.95,2.83-2,1.63-3.48,1.85-5.72.6-5.28-3-11-3.56-16.95-2.63-4.11.65-8.19,2.29-9.51,6.36-1.25,3.86-3,5.71-6.95,6.88C12.1,38,9,43.73,9.56,48s3.49,5.23,7.31,5.08C7.39,65.28,7.3,67.83,16.39,73.25Z"/><path d="M157.59,79.6a15,15,0,0,0,1.74.29c9.94.54,14.77,9.37,10,18.27a7.05,7.05,0,0,1-6.43,4c-9.15.29-18.3.65-27.45.81-4.65.08-7.48-2.45-8.34-7-1.57-8.26-.46-15.42,7.24-20.66a59.83,59.83,0,0,0,12.21-11,18.73,18.73,0,0,0,2.85-4.06c.84-1.85,1.25-4.08-.68-5.48-2.11-1.53-3.86,0-5.11,1.56-3.34,4.2-7.4,5.32-12.42,3.56-4.08-1.43-5.7-4.26-5.28-8.47.95-9.52,9.88-17.83,20-18.56,11.43-.84,21.41,5.67,23.85,15.54,2.62,10.59-.73,19.3-8.36,26.68q-2,1.88-3.85,3.8C157.48,78.94,157.56,79.18,157.59,79.6Z"/><path class="cls-2" d="M145.34,82.77c2.82-1.89,4.81-3.25,6.82-4.58,6.53-4.31,12-9.52,14.34-17.27,3.23-10.73-2.65-21.43-13.2-24.19-10.71-2.81-21.66,3.32-23.73,13.37-.46,2.22-1.27,4.84,1.61,6.11,2.6,1.14,5.38,2,7.94-.25.87-.78,1.71-1.58,2.52-2.41,2.41-2.5,5.28-3.91,8.46-1.92,3.44,2.15,3.91,5.54,2.57,9.24a18.33,18.33,0,0,1-3.75,5.82,78,78,0,0,1-13,11.55c-5.51,4-6.64,9.27-5.87,15.38.5,3.92,2.36,6.32,6.9,6.07,7.8-.43,15.62-.44,23.43-.75,5.64-.22,7.19-2.19,7-8.36-.21-5.63-2-7.22-7.66-7.32C155.28,83.18,150.85,84.18,145.34,82.77Z"/><path d="M56.05,82.25a14,14,0,0,0,2.19.52c9.78.11,14.89,8.34,10.8,17.38a7.89,7.89,0,0,1-7.5,4.86c-8.81.28-17.63.46-26.44.76-4.51.15-7.09-2.11-8.48-6.22A18.62,18.62,0,0,1,32.3,79.29C36.23,76,40.16,72.62,44,69.14a28.19,28.19,0,0,0,4.18-4.93c1.5-2.21,2.23-4.84-.18-6.74s-4,.48-5.36,2c-2.94,3.2-6.28,4.78-10.69,3.65-5.41-1.38-7.39-4.36-6.44-9.91C27.28,42.51,37.05,35.1,48.7,35.58,60.07,36,68.82,44.15,69.84,55c.86,9.15-2.52,16.57-9.06,22.76C59.35,79.16,57.9,80.51,56.05,82.25Z"/><path class="cls-2" d="M44.37,85.73c3.85-2.58,6.67-4.31,9.31-6.27C62.13,73.17,68,65.57,66.35,54.16,65.12,45.6,57.48,39.08,48.1,38.79,38.9,38.51,30.48,44.73,28.88,53c-.42,2.21-.57,4.54,1.61,5.85,2.34,1.4,5,2,7.51.24a42.73,42.73,0,0,0,3.33-3c2.38-2.13,5.14-3.63,8.12-1.74,3.18,2,3.73,5.32,2.74,8.85a15.26,15.26,0,0,1-3.27,5.54,75.59,75.59,0,0,1-13.7,12.33c-5.1,3.74-6.45,8.55-5.93,14.38.48,5.46,2.1,7.08,7.55,7,7.66-.14,15.31-.45,23-.72,5.6-.19,7-1.93,6.83-8.39C66.48,87.62,64.69,86,59,86,54.6,86,50.15,86.83,44.37,85.73Z"/><path d="M76.53,88.2c-3.78-11.39-5-25.25.21-39.1,3.65-9.66,11.33-15,20.33-15s16.81,5.59,20.35,15.08a58.54,58.54,0,0,1,1.13,39.13c-3.18,10-10.58,15.71-20,16.16C89.43,105,82,100,76.53,88.2Z"/><path class="cls-2" d="M115.4,53.3c-4.76-11-10.35-15.49-17.7-15.82-7.72-.34-13.39,3.3-16.47,10-6.65,14.42-6,29.16.31,43.49,3.19,7.19,9.47,10.49,17.39,10.19s12.84-5,15.63-12C119.69,76.31,118.5,63.45,115.4,53.3Z"/><path d="M176.77,84c-3.34-8.82-3.89-21-.87-33.2,2.95-11.93,10.6-18.82,20.58-19.39s17.79,5,22.1,16.75a55.42,55.42,0,0,1,.33,38.13c-3.53,10.16-10.68,15.28-20.4,15.48C189.48,101.94,182.19,96.68,176.77,84Z"/><path class="cls-2" d="M180.11,83.6c4.65,10.24,10,14.41,16.86,14.74S209.63,96,213.48,90c7.13-11.09,6.58-36.1-1-46.92-8.36-12-24.4-11.13-30.77,2C175.17,58.57,176.82,72.47,180.11,83.6Z"/><path d="M103,58.88a38.63,38.63,0,0,1,.33,21.94,6.18,6.18,0,0,1-5.73,4.8c-3.15.22-4.83-2.13-5.71-4.71A38.17,38.17,0,0,1,91,58.84c.73-2.91,2.42-5.22,5.65-5.58C100.32,52.86,101.32,55.84,103,58.88Z"/><path class="cls-1" d="M94.62,78.85c.74,1.52,1.06,3.33,2.84,3.4,2.14.09,2.61-1.9,3-3.44a35.47,35.47,0,0,0-.7-19.14c-.45-1.35-.93-3.14-2.83-3s-2.28,1.83-2.65,3.24A35.85,35.85,0,0,0,94.62,78.85Z"/><path d="M192.42,77.7a37.07,37.07,0,0,1-.59-22.06c.8-2.8,2.42-5.29,5.87-5.23,3.14.06,4.73,2.32,5.64,4.92A37.13,37.13,0,0,1,204.19,77c-.76,3-2.17,5.8-5.8,6C195,83.06,193.6,80.42,192.42,77.7Z"/><path class="cls-1" d="M195.12,76.11c.92,1.38,1.1,3.57,3.28,3.32,2-.23,2.39-2.15,2.76-3.75A37.81,37.81,0,0,0,200.54,57c-.41-1.48-1.18-3-2.86-3s-2.43,1.53-2.81,3C193.21,63.39,193.68,69.77,195.12,76.11Z"/></svg>