<svg id="Layer_1" data-name="Layer 1" xmlns="http://www.w3.org/2000/svg" viewBox="0 0 256 256"><defs><style>.cls-1{fill:#fff;}.cls-2{fill:#fdd448;}.cls-3{fill:#fd4d9e;}</style></defs><title>Artboard 1</title><path d="M66.3,19.76c9.83,5,21.27,10.85,32.69,16.71,7.5,3.85,15.08,7.54,22.41,11.7,3.93,2.23,7.25,2,11.23.16,19.47-9.06,39-17.92,58.61-26.76,5.92-2.67,12-3.25,17.89.13,2.32,1.33,4.52.81,7,.42,14.56-2.33,25.23,6.57,25.28,21.38q.25,65.27.17,130.52c0,9.87-4.63,17.1-13.66,21.48-28.17,13.68-56.35,27.34-84.43,41.2-9.87,4.87-19,5.1-29.11-.2C85.87,221.66,57,207.64,28.27,193.28c-8.65-4.33-13-10.87-13-21.06.26-42.51,0-85,0-127.56,0-15,9.5-23.6,24.31-22a12.93,12.93,0,0,0,8-1.52C52.25,18.7,60.13,18,66.3,19.76Z"/><path class="cls-1" d="M41.55,29.11C29.4,26.27,21.29,32.48,21.27,44.58c-.05,42.52,0,85-.12,127.56,0,7.5,3.18,12.44,9.8,15.75Q74.86,209.82,118.61,232c6.67,3.4,12.85,3.6,19.51.34,28.69-14,57.38-28.07,86.2-41.84,7.65-3.65,11.34-9.32,11.33-17.5q0-65.28-.27-130.56c0-10.78-9.08-17.13-19.44-13.89-2.5.78-4.58,1.11-6.82-.35-6.05-3.93-12-3.08-18.28-.16-19.47,9.1-39.07,17.94-58.55,27a10.73,10.73,0,0,1-10.68-.2c-18.1-9.55-36.37-18.79-54.62-28-6.59-3.35-13.21-3.65-19.1,1.48C45.63,30.31,43.63,30,41.55,29.11Z"/><path d="M220.82,42.86c0,28.52,0,56.61.06,84.7,0,14.19,0,28.37.14,42.55,0,3.8-1.24,6.06-4.93,7.82q-41.28,19.75-82.31,40a10.4,10.4,0,0,1-10.56-.08c-27-13.81-54-27.51-81.19-40.83-4.76-2.33-6.18-5.12-6.17-10C36,130.11,36,93.16,36,56.21c0-.8.17-1.6.18-2.4,0-3.18-1.28-7.48.29-9.29,2.5-2.86,5.56,1.2,8.37,2.15,3.21,1.07,5.15-.53,6.84-2.43,4.54-5.09,9-4.68,14.74-1.56,18.36,9.92,37.08,19.14,55.53,28.89,3.63,1.92,6.52,1.84,10.12.15,21.27-10,42.63-19.73,64-29.53,2.26-1,4.57-3,7-.12,4.29,5.13,9.16,5.66,14.62,1.86A13.67,13.67,0,0,1,220.82,42.86Z"/><path class="cls-2" d="M71.36,118.69c-.15-1.44-.4-2.81-.41-4.17,0-14.65-.17-29.3.07-43.95.06-3.32-.86-5.25-3.75-6.61C60,60.53,52.75,57.17,45.66,53.45c-3.36-1.76-4.51-1.62-4.4,2.53.2,8.23,0,16.46,0,24.68q0,42.44,0,84.88c0,2.88.22,5.09,3.53,6.73q39.63,19.62,79,39.78c3.42,1.74,6.1,1.63,9.51-.05q38.64-19,77.5-37.62c3.62-1.73,4.95-3.82,4.92-7.78-.16-20.25,0-40.5-.06-60.76,0-18-.12-36-.19-53.77-1.61-.67-2.42,0-3.31.46-26.79,12.85-53.62,25.63-80.34,38.61C128,93,125,93,121.2,91c-7-3.87-14.34-7.14-21.55-10.64-6.51-3.16-6.39-3.14-6.69,4.35-.5,12.66-1.19,25.32-1.86,39.22-1.31-1.75-1.82-2.34-2.23-3-2.22-3.57-3.75-9.26-6.79-10.24-4.35-1.39-5.85,5.3-9.37,7.6A6.85,6.85,0,0,1,71.36,118.69Z"/><path class="cls-1" d="M125,86.38c1.64.7,3.08.18,4.59-.54q35.59-17,71.2-34c1.08-.51,3.3-.67,2.46-2.58a3.81,3.81,0,0,0-4.31-2.54,23.89,23.89,0,0,0-4.45,1.78Q162.72,63.08,131,77.74c-3,1.39-5.48,1.55-8.47-.08-8.46-4.6-17.06-8.91-25.62-13.32-11.59-6-23.23-11.84-34.76-17.91-4-2.11-6.71.45-8,3s2.36,2.93,4.08,3.8c13,6.6,26.14,13.1,39.23,19.61Q111.22,79.63,125,86.38Z"/><path class="cls-3" d="M85.73,101.86c.44-9.12.85-16.51,1.15-23.91.21-5.15-4.36-6.86-7.54-7.07-3.61-.24-1.14,4-1.66,6.1a17.14,17.14,0,0,0,0,4.8c.32,6.64-.83,13.35.46,20.44C80.71,100.64,82.38,97.13,85.73,101.86Z"/><path d="M123.13,106c.38-2,.9-3.88,3.35-3.46,2.69.45,2.58,2.8,2.59,4.75.05,9.63,0,19.26,0,28.9q0,29.78.1,59.57c0,1.81-.11,3.62-.17,5.42-.06,2-.72,3.73-3,3.7s-2.75-2-2.77-3.89q-.08-8.13-.08-16.26,0-37.63.07-75.26C123.17,108.22,123.14,107,123.13,106Z"/></svg>