<svg id="Layer_1" data-name="Layer 1" xmlns="http://www.w3.org/2000/svg" viewBox="0 0 1920 1080"><defs><style>.cls-1{fill:#fff;}.cls-2{fill:#fd4d9e;}.cls-3{fill:#fdd448;}.cls-4{fill:#28a6fa;}</style></defs><title>Artboard 1</title><path d="M1296.3,586.8a7.82,7.82,0,0,0-.18-4.84c-1.37-4.27-.68-8.26.32-12.53,2.84-12,2.29-23.74-5.75-33.8-6.17-7.73-13.55-14.4-20.84-21.09a29.22,29.22,0,0,0-13.09-6.54c-9.64-2.41-19.37-1.48-29.06-1.49-4.34,0-5.16-.54-3.74-5.09,3.23-10.34,6.64-20.89,4.37-32-1.7-8.29-4.92-16.22-5.94-24.71a19.56,19.56,0,0,0-3.43-8.67c-7.74-11.24-17-21.47-28.06-29-22-15-45.64-14.94-69.43-3.61-2.08,1-3.57,2.19-6.09.33-13-9.6-27.2-9.64-41.79-4.44a9.27,9.27,0,0,1-6.58.08c-9.83-3.27-19.91-5.6-30-1.71-7.26,2.8-13.9,1.18-20.88-.61a39.19,39.19,0,0,0-31.72,5.24c-3.42,2.18-5.87,2.82-9.13.55a13.53,13.53,0,0,0-3.22-1.24c-14-5-28.55-6.46-43.33-5.74-9.36.46-18.38,2.18-25.7,8.63-1.93,1.7-3.34,2.18-5.36.19-11.6-11.46-43.24-11.89-55.52-.7-1.81,1.65-3.23,1.43-5-.13-3.94-3.41-8.68-5-13.73-6.38-10.77-2.86-21.67-1.21-32.5-1.6-9.5-.34-18.74.87-27,6.16a3.27,3.27,0,0,1-3.27.31c-15.94-6.66-32.74-7.13-49.61-6.46-12.88.51-24.41,4.18-31.48,16.16-4.15,7-5.25,14.87-5.34,22.83-.14,13.36,0,26.72-.06,40.09-.08,12,.58,23.77,9.61,34.5-4-.91-6.53-1.54-9.1-2.08-17.71-3.67-34.07-.25-49,9.84-14.31,9.7-21.59,23.93-23.72,40.59-2.21,17.24-.12,34,10.39,48.62,7.36,10.23,16.87,18.52,26.13,26.93a44.65,44.65,0,0,0,17.07,9.75c18.22,5.51,36.06,5,53.45-3.15,1.25-.59,2.28-.93,3.65-.08,12.82,8,26.4,8.24,40.35,3.62a9.18,9.18,0,0,1,6.14,0c9.91,3.25,20,4.39,30.06.89a13.78,13.78,0,0,1,8.68.12c12.46,3.6,24.42,2.49,35.71-4.14a2.64,2.64,0,0,1,3.14-.13c11.9,7.26,24.54,7.72,37.59,3.86a10,10,0,0,1,5.31-.12,108.74,108.74,0,0,0,49.88,0,12.1,12.1,0,0,1,5.83-.17,104.07,104.07,0,0,0,49.86.11,7.5,7.5,0,0,1,3.87-.27c12.69,4.38,25.82,2.36,38.77,2.9a55.83,55.83,0,0,0,19.93-3,9.57,9.57,0,0,1,6.63.07c11.51,4.18,23,3.65,34.28-.79a6.19,6.19,0,0,1,4.67,0c15.51,5.17,30.67,6,44.72-4.24,1.71-1.25,2.89-.61,4.45.2,19.33,10.06,39.28,10.62,59.18,2.41,5.58-2.31,9.62-3.57,14.24,1.05,1.26,1.26,3.58,1.57,5.48,2.07,14.94,3.9,30.17,2.11,45.27,1.71a32.19,32.19,0,0,0,15.51-4.53c13.58-8.1,17.61-23.86,14.87-38.41C1296,597.73,1294.07,592.46,1296.3,586.8Z"/><path class="cls-1" d="M1280.83,637.75a26.27,26.27,0,0,1-13.52,4.36c-13.31.65-26.66,1.28-40-.37a26.64,26.64,0,0,1-15.8-7.45c-1.63-1.6-2.79-1.43-4.67-.36q-32.62,18.63-65.08-.42c-1.67-1-2.55-1.22-4.19.18-13.7,11.68-28.8,11-44.4,4.61a4.28,4.28,0,0,0-4-.08c-11.8,5.79-23.81,5.74-35.88.91a5.61,5.61,0,0,0-4.64,0,43.5,43.5,0,0,1-18.32,3.42c-11.18-.52-22.53,1.54-33.51-1.17-6.45-1.6-12.3-.85-18.68.06-14.36,2-28.88,2.64-43.07-1.75a6.61,6.61,0,0,0-4.19-.24c-16.66,4.85-33.49,4.27-50.29.81a13,13,0,0,0-7.17.1c-9.55,3.18-19.68,3.94-28.48-.57-7.26-3.72-12.26-3.71-19.52,0-9,4.65-19.27,3.55-29,.41a8.66,8.66,0,0,0-5.71-.18c-11.23,3.63-22.36,3.58-33.19-1.56-1.43-.67-2.37-.16-3.65.34-13.8,5.41-27.29,5.71-40-3.07-1.92-1.34-3.23-1.31-5.27-.17-20.79,11.62-55,10-73.06-10.25-7.11-8-15.95-14.39-21.67-23.63-14.47-23.38-12.79-66.36,18-83.86,12.69-7.2,26.52-9.81,41-6.82,6.77,1.39,13.59,2.75,19.54,6.64,1,.68,2.36,1.75,3.46.19s-.66-2.31-1.46-3.08c-7.06-6.78-14-13.58-15.38-24-.14-1.14-.49-2.27-.52-3.41-.49-19.79-1.07-39.61.17-59.35,1-16.65,11.56-26.7,29.09-27.85,14.77-1,29.68-1.25,44.14,3.35,5.85,1.86,13,1.12,18.92-.8,5-1.62,10.13-3,15.5-2.83,11,.39,22.09-.85,33.09.77,7.06,1,13.29,3.76,18.2,9.1,1.23,1.35,2.15,2.09,3.9.26,9.93-10.4,22.65-11,35.75-9.62a31.44,31.44,0,0,1,21.13,10.63c1.22,1.39,2.27,2.21,3.81.08,5.47-7.61,13.72-10.32,22.38-10.94,14.85-1.07,29.68-.48,44,4.41,6.88,2.35,14.88,1.58,21.53-1.2a42.53,42.53,0,0,1,34.57.33c1.56.67,2.7,1.66,4.88.58,12.63-6.24,25.49-5.65,38.22-.21a5.11,5.11,0,0,0,4.82,0c14.41-6.16,28.51-6.47,41.46,3.67,2.78,2.18,4.5,2.11,7.54.27,14.22-8.62,29.65-9.95,45.77-6.93,11.61,2.17,21.34,7.33,29.22,16.19,5.69,6.4,12.58,11.68,17.55,18.75a26,26,0,0,1,4.45,9.81c1.32,6.46,2.51,12.89,4.43,19.31,4.69,15.72-.19,30.48-7.74,45.21,9.57,0,18.78.13,28,0,11.69-.22,21.66,3.27,29.43,12.39a92.45,92.45,0,0,0,9.44,9.44c11.86,10.39,13.84,23.42,10,37.81-1,3.81-1.43,7.3-.29,11,.53,1.73,1.12,3.64.41,5.36-2.46,6-.45,11.57.87,17.3C1296.32,617.2,1291.34,630.63,1280.83,637.75Z"/><path d="M1272.36,571.17c7.4-6.32,7.72-18,.85-25-4.75-4.81-9.65-9.48-14.3-14.38a16,16,0,0,0-12.35-5.17c-9.74.07-19.47-.07-29.2,0-10.1.1-15.06,5.09-15.5,15.23-.1,2.3.56,4.76-.77,7.17-8.42-6.87-14.15-16.35-24.49-20.3-1.8-.69-.53-1.91.23-2.68,5.44-5.52,10.51-11.5,16.47-16.39,9.91-8.11,14.47-18.39,15.27-30.88.41-6.29-.43-11.79-5.77-15.9-1.22-.93-2.65-2-1.17-4.09,3.91-5.41,2.08-10.44-1.78-14.8-4.36-4.93-9.12-9.53-13.78-14.19-3.83-3.84-7.49-7.9-12.66-10.13-15.29-6.59-40.87-6.48-53.76,11.83-1.47,2.09-2.48,2.12-4.14.35-3-3.11-6-6.09-9.07-9.12-11.94-12-27.78-8.47-33.56,9.07-3.67-4.21-6.44-8.18-10-11.31a19.76,19.76,0,0,0-32.32,10.41c-3.71-3.81-6.72-7.05-9.9-10.12-5-4.8-15.86-6.26-22.8-3.09s-7.74,9.21-7.75,15.77c0,2.37.52,4.84-.89,8.41-4.45-4.75-8.34-8.94-12.28-13.08a36,36,0,0,0-17.71-10.31c-11.68-2.9-23.56-2.87-35.4-1.85-7,.59-11,4.86-11.56,12-.52,6.4-.29,12.86-.36,19.29,0,3.05,0,6.1,0,10.05-2.41-2.31-2.77-4.5-3.29-6.42a38.42,38.42,0,0,0-12.6-20.2,36.27,36.27,0,0,1-5.92-6c-6.29-8.4-14.87-9.93-24.65-9.27-8.28.55-13.55,4.32-16.16,12.12-1.32,3.95-2.87,7.82-4.06,11.05-6.56-6.2-12.93-12.16-19.23-18.2-2.44-2.34-5.09-4.3-8.56-4.52a241,241,0,0,0-36.55.08c-6.35.57-10,4.66-11,10.94-.42,2.49-.6,5-.92,7.76-2.7-1.18-4-3.14-5.55-4.79-6-6.58-12.67-11.94-21.91-13.3-10.35-1.53-20.74-1.19-31.12-1.12-10.77.08-15.68,5.11-15.72,15.88-.07,17.32.06,34.64-.06,52a17.1,17.1,0,0,0,5.55,13.18c8.78,8.47,17.35,17.16,26,25.79.78.77,2,1.47,1.47,2.84s-2,.89-3,.9c-2.8,0-5.61-.17-8.41,0-8,.38-13.07,5.53-13.41,13.59-.09,2.21,0,4.43,0,7.48-4.2-2.57-6.56-5.55-9.06-8.26-7.94-8.61-17.79-12.59-29.34-13.39-20-1.37-37.39,10.39-41.6,29.87-3.68,17-1.65,33.23,12.37,45.87a93.74,93.74,0,0,1,8.72,8.77c10.57,12.42,23.95,17.4,40.07,15.89a40.48,40.48,0,0,0,21-7.86c2.72-2,4.39-7,7.35-6.38s5.35,4.55,7.91,7.12c11.91,11.93,26.59,9.55,34.19-6.87,3.15,3.61,5.68,7.12,8.81,10,7,6.34,22.08,5.53,26.79-1.8,2.7-4.21,4.05-2.72,6.21-.19a23.13,23.13,0,0,0,2.13,2.07c7.12,6.32,22.42,5.15,27.67-2.47,1.86-2.71,3.8-3.35,6.83-3.53a15.26,15.26,0,0,1,13.07,5c7.78,8.09,22.92,6.39,28.7-2.86,1.75-2.8,2.6-.89,3.57.16,3.79,4.12,8,7.45,13.93,7.46,8.41,0,16.83.09,25.24-.08,5.25-.12,9.75-2.12,12.21-7,1.35-2.69,2.33-2.56,4.12-.49,4.06,4.68,9.09,7.59,15.46,7.62,7.59,0,15.18.11,22.77,0,5.2-.08,10-1.68,12.59-6.47,2-3.78,3.47-2.85,5.5-.38,4.17,5.1,9.57,7.11,16.14,6.91,8.24-.25,16.49-.06,24.74-.07,10.8,0,14-2.14,18.46-13.33,2.63,3.07,4.69,5.83,7.11,8.24,5.73,5.7,17.39,7,24.4,3a12.07,12.07,0,0,0,5.67-7.19c1.56-5,1.8-5.18,5.46-1,6,6.76,12.66,11,22.27,10.46,10.8-.64,15.85-5.36,16-16.37,0-2.82-.47-5.73.71-9.59,5,5.19,9.61,9.47,13.64,14.23,14.27,16.84,50.42,16.13,62.58-3.13,1.66-2.62,2.83-1.83,4.48-.13,3.33,3.43,6.83,6.69,10.16,10.13a14.65,14.65,0,0,0,10.58,4.67c10.72.14,21.45.24,32.16,0,7.2-.19,12.56-4.92,13.11-11.15s.56-12.63-5.13-17.16c-1.66-1.32-1.42-2.39,0-4,5.19-6.24,5-12.39-.43-19C1270.61,573.32,1270.66,572.63,1272.36,571.17Z"/><path class="cls-1" d="M653.48,577.45c3.36,7,11.23,8.75,16.13,2.83,6.31-7.65,13.72-5.73,21.23-3.93,4.07,1,5.27,4.76,3.54,9.81a27,27,0,0,1-16.16,17A37.11,37.11,0,0,1,663,606c-21.9,0-35.59-12.13-37.58-32.68-2.12-21.91,8.88-38.83,28.29-42.28,13.78-2.46,26.78-.41,36.46,11.08,3.39,4,6.95,8.64,4.57,14.28-2.27,5.36-8,4.31-12.55,5.1s-8.31-.43-11.31-4.31c-2.67-3.47-6.42-5.17-10.91-4.08s-6.58,4.71-7.64,8.88C651,567.24,651.08,572.48,653.48,577.45Z"/><path class="cls-1" d="M726.61,473.79c-3.44.51-2,3.22-2.19,5.07-.24,2.45.08,5-.2,7.41-.64,5.65-3.77,8.47-9.46,8.78-1.64.09-3.29.05-4.94,0-7.82-.08-11.07-3.24-11.17-11.17-.11-8.73,0-17.47,0-26.21,0-8.58-.07-17.15,0-25.72s3.13-11.66,11.72-11.6c10,.07,20.15-1,30.09.94,19.95,3.85,27.74,27.43,14,42.76-2.49,2.78-2.61,4.64-1,7.63a117.55,117.55,0,0,1,6,13c2.45,6.3,0,9.93-6.72,10.34-2.47.15-4.95.06-7.42,0-5-.07-8.53-2.37-10.49-6.89-1.44-3.32-2.54-6.78-3.84-10.16C730.23,475.93,729.92,473.29,726.61,473.79Z"/><path class="cls-1" d="M772,594.57c-.07,7.15-2.9,10.16-10,10.95-11.44,1.26-15.58-2.39-15.62-13.8v-3c0-10.17-1.29-11.14-11.62-9.61-2.46.36-2.36,1.76-2.36,3.43,0,4.13.07,8.25,0,12.37-.16,6.6-2.91,9.66-9.39,10.44a29.28,29.28,0,0,1-5.92.11c-7.23-.65-10-3.47-10.22-10.69-.18-5.11-.06-10.22-.06-15.34,0-12.2,0-24.4,0-36.6,0-4.58.34-9.43,5.4-11.18,5.52-1.92,11.39-2.33,16.66,1.08,2.88,1.86,3.44,5.11,3.51,8.32.08,4.12.14,8.25,0,12.37-.09,2.55.82,3.49,3.41,3.44,13.09-.24,10.27,1.5,10.61-9.67,0-1.32,0-2.64,0-4,.13-9.92,3.18-12.85,13.24-12.73,9.36.1,12.34,3.12,12.37,12.58,0,8.41,0,16.82,0,25.23C772,577.09,772,585.83,772,594.57Z"/><path class="cls-1" d="M773.78,485.37c-.14-9.23,0-18.46,0-27.68h0c0-8.9-.06-17.8,0-26.7.06-7.22,3-10.47,10.06-10.59,10.05-.17,20.1-.2,30.15,0,7.92.13,10.84,3.41,10.78,11.42-.06,7.54-3.23,10.68-10.94,10.79-3.62.05-7.25,0-10.87,0-2.16,0-4.22-.39-4.15,3.08s2.35,2.92,4.37,3c3.63.1,7.27-.11,10.87.2,6.23.54,8.93,3.44,8.86,9s-3.08,8.39-9.22,8.65c-3.95.16-7.91.14-11.86,0-2.49-.06-2.94,1.16-3,3.34-.07,2.4.79,3.18,3.12,3.12,4.45-.12,8.9-.15,13.35,0,6.43.25,9.4,3.71,9.45,10.68,0,7.5-2.79,11.18-9.33,11.3-10.71.19-21.42.16-32.13,0C777.16,494.94,773.87,491.53,773.78,485.37Z"/><path class="cls-1" d="M850.56,604.44c-6.58,3.18-17.41,1-19.91-4.59-1.53-3.44-3.53-4.12-6.76-3.91a66.09,66.09,0,0,1-8.9,0c-4-.3-6.77.35-8.84,4.72-2.7,5.69-16.92,6.94-21.4,2.42-3-3-2.4-6.61-1.14-10.18q7.65-21.69,15.33-43.36c.77-2.17,1.55-4.34,2.3-6.52,3.81-11,5.87-12.47,17.58-12.47,11.14,0,13.34,1.57,17,11.93,5.71,16.15,11.5,32.29,17.19,48.45C855.66,598.46,854.89,602.35,850.56,604.44Z"/><path class="cls-1" d="M856.68,490.73c-2.6,5.45-16.79,6.32-21.07,2-3.19-3.19-2.38-6.94-1.07-10.64q8-22.59,16-45.18c.38-1.09.8-2.16,1.19-3.25,4.51-12.77,13.79-17.15,26.67-12.62a10.55,10.55,0,0,1,6.65,6.83c6.57,18.47,13.29,36.89,19.64,55.43,2.78,8.12-.82,11.75-11.47,11.74-5.56.46-10.56-1.12-12.83-7.55-.62-1.75-2.1-1.89-3.64-1.9-3.13,0-6.27.1-9.4,0C862.87,485.4,859.21,485.42,856.68,490.73Z"/><path class="cls-1" d="M910.53,596.2c-.51,5.47-3.13,8.54-8.62,9a170.65,170.65,0,0,1-27.13.1c-6.66-.45-9.27-3.46-9.41-10.29-.18-9.06,0-18.12,0-27.18h-.06c0-8.4-.09-16.8,0-25.2.12-9.42,3.27-12.22,13.27-12.12,9.12.09,12.22,3.12,12.25,12.15,0,12,.12,24-.07,36.07-.06,3.51,1.1,4.8,4.51,4.38a23.67,23.67,0,0,1,4,0C907.74,583.45,911.34,587.6,910.53,596.2Z"/><path class="cls-1" d="M994.48,431.11c.09-7.5,3.08-10.5,10.45-10.73a50.93,50.93,0,0,1,6.42.13c4.89.45,8.14,3.36,8.18,8.24.18,19.27.09,38.54.05,57.82a8.4,8.4,0,0,1-.77,3.33c-2.75,5.82-7.86,5.65-16.69,5-4.64-.36-7.48-3.83-7.58-8.9-.18-9.55,0-19.11,0-28.66h0C994.45,448.57,994.37,439.84,994.48,431.11Z"/><path class="cls-1" d="M966.06,596c-.34,5.53-2.85,8.68-8.38,9.2a157.1,157.1,0,0,1-28.11,0c-5.87-.51-8.41-3.54-8.5-9.51-.14-9.22,0-18.45,0-27.67h0q0-12.36,0-24.72c0-9.88,2.84-12.79,12.5-12.79,10,0,12.81,2.83,12.82,13,0,11.69.12,23.39-.07,35.09-.05,3.36.79,5,4.36,4.49a23.49,23.49,0,0,1,3.46,0C963.22,583.31,966.62,587,966.06,596Z"/><path class="cls-1" d="M947.12,494.92c-7.06.38-14.16.25-21.24.11-6.15-.12-9.47-3.41-9.58-9.56-.16-9.39,0-18.78,0-28.17,0-8.73-.09-17.46,0-26.19.08-7.47,3.11-10.68,10.44-10.72,9,0,18.11-.63,27.11,1,17.48,3.16,26.78,13.43,27.95,31.28a61.19,61.19,0,0,1-.23,12.33C978.89,484,967.58,493.82,947.12,494.92Z"/><path class="cls-1" d="M1018.67,605.26a236.19,236.19,0,0,1-33.12,0c-6.45-.44-8.87-3.51-8.94-10.13-.1-9.07,0-18.15,0-27.22,0-8.91-.07-17.82,0-26.72.09-7.39,3.21-10.54,10.62-10.62q15.09-.18,30.18,0c6.93.11,10,3.51,10.13,10.63.14,7.74-2.59,11.17-9.57,11.6-4.28.26-8.57.26-12.86.21-2.52,0-3.47.86-3.44,3.47,0,2.86,1.8,2.62,3.65,2.62,4,0,7.93-.13,11.87.11,5.5.34,8.3,3.25,8.45,8.35.17,5.47-2,8.4-7.57,9.08a99.88,99.88,0,0,1-12.84.38c-2.4,0-3.62.58-3.58,3.31s1.69,2.73,3.6,2.74c4.29,0,8.59-.12,12.86.15,6.35.39,9.31,3.77,9.44,10.31C1027.71,601.41,1025.49,604.77,1018.67,605.26Z"/><path class="cls-1" d="M1035.28,484.73c-.06-18-.14-36,0-54,.06-7.07,3.49-9.83,10.43-10.52,9.79-1,16.35,2.51,20.45,11.71,3.06,6.89,7.24,13.28,10.93,19.9l1.06-.21c0-6.37,0-12.74,0-19.1,0-4.56.23-9.47,5.38-11.18,5.35-1.77,11-2.15,16.25.83,2.82,1.62,3.73,4.6,3.75,7.66.06,18.48.14,37,0,55.44-.06,6.4-3.63,9.17-10,9.85-10,1.06-16.72-2.36-20.86-11.82a103.57,103.57,0,0,0-11.82-19.52c0,6.18,0,12.35,0,18.53,0,4.34.09,9.11-4.48,11.26a19.39,19.39,0,0,1-16.73,0C1036.15,492,1035.29,488.32,1035.28,484.73Z"/><path class="cls-1" d="M1109.34,595.55c-.06,6.13-3,9-9,9.83-11,1.61-15.66-.68-21.07-10.35-3.71-6.61-7.35-13.26-11-19.89a6.4,6.4,0,0,0-.68-.83c-1.75.64-1,2.19-1,3.29-.12,6.27.08,12.55-.22,18.8-.27,5.56-2.72,7.92-8.16,8.86a25.6,25.6,0,0,1-8.86,0c-5.22-.91-8.1-3.65-8.15-8.92q-.24-28.22,0-56.41c0-5.46,3.13-8.76,8.53-9.15,12-.85,16.15,0,21.5,10.42,3.53,6.89,7.52,13.55,11.33,20.29.12.23.48.32,1.35.85,0-6.54-.05-12.71,0-18.87,0-4.5,0-9.38,4.91-11.51a19.06,19.06,0,0,1,16.28.26c3.33,1.62,4.23,5.06,4.25,8.42C1109.46,558.93,1109.51,577.24,1109.34,595.55Z"/><path class="cls-1" d="M1119.86,439c6.31-13.37,20.56-20.74,37-19.13,8.32.81,16.38,2.26,22.37,8.92,6.19,6.87,4.75,11.5-4.1,14.29a20.13,20.13,0,0,1-15.73-1.13c-7.8-3.78-14-.87-16.47,7.46-2,6.68-2,13.41,1.19,19.76,3.33,6.58,11.55,7.82,15.44,2.47,1.49-2,2.25-3.68-1.57-4.11-6.61-.76-9.3-3.82-8.93-9.38.35-5.16,3.59-7.83,9.92-8,3.46-.11,6.92,0,10.39,0v.21c4.12,0,8.25-.2,12.35.06,3.19.21,5.56,1.74,6.09,5.36,2.08,14.36-5.54,30.27-17.4,36.11-14.51,7.14-33.83,4.52-44.26-6S1112.77,454.06,1119.86,439Z"/><path class="cls-1" d="M1176.08,602.22c-13.77,6.86-32.74,4.33-43.25-5.06-15.45-13.82-17-53.84,10.15-64.16,11.7-4.45,23.62-3.93,35.19,1a19.33,19.33,0,0,1,9.58,9c2.13,4,1.24,7.11-2.89,8.94-6.18,2.74-12.33,4-19,.68-8.88-4.37-15.4-.86-17.64,8.82-1.46,6.31-1.17,12.47,1.82,18.31a9.27,9.27,0,0,0,8.73,5.42,7.72,7.72,0,0,0,7.07-3.73c1.3-2.07,1.24-3-1.66-3.35-7.06-.85-9.62-3.75-9.21-9.65.37-5.25,3.78-7.93,10.45-8.1,3.14-.08,6.27,0,10.61,0,3.23.22,7.7-.47,12.12.51,3.22.71,5.25,2.36,5.61,5.91C1195.26,581.57,1188,596.29,1176.08,602.22Z"/><path class="cls-1" d="M1248.12,605.27c-10.86.47-21.76.46-32.62.05-6.63-.25-9.14-3.56-9.2-10.4-.08-8.91,0-17.81,0-26.72h0c0-8.9-.06-17.81,0-26.72.06-7.56,3.27-10.82,10.89-10.91q14.6-.17,29.19,0c7.47.09,10.72,3.31,10.88,10.41.19,8.23-2.58,11.52-10.28,11.92-4.12.21-8.25.19-12.37.16-2.27,0-3.18.81-3.2,3.19,0,2.62,1.29,3,3.38,2.91,3.8-.07,7.59-.12,11.38,0,6,.24,9,3,9.2,8.13.28,6-2.28,9-8.75,9.57-3.93.35-7.91.23-11.87.19-2.16,0-3.33.51-3.35,3s1.13,3,3.31,3c4.28,0,8.58-.12,12.86.12,6.48.35,9.52,3.63,9.69,10.06C1257.43,601.34,1255.12,605,1248.12,605.27Z"/><path d="M944.63,442.5c-2.27-.05-3.31.47-3.22,2.94.15,4.1,0,8.22,0,12.32s.12,8.22-.05,12.32c-.1,2.57,1,3,3.26,2.78,7.52-.65,11-4.05,11.38-11.54A66.76,66.76,0,0,0,956,453C955.43,446.21,951.38,442.66,944.63,442.5Z"/><path d="M735.18,448.69c0-4.87-2.45-7.27-7.23-7.27-6.51,0-2.34,5.12-3.67,7.19,0,7.61,0,7.61,3.44,7.66C732.75,456.34,735.19,453.85,735.18,448.69Z"/><path d="M871.41,468.22c2.41-.09,3.71-.32,2.73-3.32-1.63-5-2.87-10-4.69-16.53-1.43,5.26-2.49,9.2-3.57,13.14C864,468.56,863.94,468.49,871.41,468.22Z"/><path d="M819.1,560.46l-.94,0c-1.29,4.69-2.37,9.46-3.94,14.05-1.17,3.38-.38,4.61,3.14,4.23a13.23,13.23,0,0,1,2.95,0c2.92.35,3.84-.72,3-3.61C821.78,570.25,820.48,565.35,819.1,560.46Z"/><rect class="cls-1" x="755.5" y="286.46" width="380" height="70.57" rx="20.18"/><path d="M1115.32,359.54H775.68A22.71,22.71,0,0,1,753,336.85v-30.2A22.71,22.71,0,0,1,775.68,284h339.64A22.71,22.71,0,0,1,1138,306.65v30.2A22.71,22.71,0,0,1,1115.32,359.54ZM775.68,289A17.71,17.71,0,0,0,758,306.65v30.2a17.71,17.71,0,0,0,17.68,17.69h339.64A17.71,17.71,0,0,0,1133,336.85v-30.2A17.71,17.71,0,0,0,1115.32,289Z"/><path d="M805.35,324.69h-4.52v6.89a3.2,3.2,0,0,1-.7,2.24,2.27,2.27,0,0,1-1.76.76,2.3,2.3,0,0,1-1.79-.75,3.22,3.22,0,0,1-.68-2.22V312.85a3,3,0,0,1,.75-2.32,3.37,3.37,0,0,1,2.37-.7h6.33a16.84,16.84,0,0,1,4.31.43,6.43,6.43,0,0,1,2.58,1.38A6.21,6.21,0,0,1,813.9,314a8.41,8.41,0,0,1,.56,3.14,6.91,6.91,0,0,1-2.29,5.63Q809.88,324.69,805.35,324.69Zm-1.2-11.16h-3.32V321h3.32a10,10,0,0,0,2.91-.36,3.48,3.48,0,0,0,1.79-1.2,3.55,3.55,0,0,0,.61-2.17,3.7,3.7,0,0,0-.94-2.63C807.81,313.89,806.35,313.53,804.15,313.53Z"/><path d="M844.59,309.42a13,13,0,0,1,6.49,1.53,10,10,0,0,1,4.11,4.37,14.88,14.88,0,0,1,1.4,6.65,16.25,16.25,0,0,1-.77,5.13,10.93,10.93,0,0,1-2.29,4,10,10,0,0,1-3.75,2.59,14.85,14.85,0,0,1-10.21,0,10.14,10.14,0,0,1-3.77-2.6,11.21,11.21,0,0,1-2.28-4,16.42,16.42,0,0,1-.77-5.1,15.88,15.88,0,0,1,.8-5.14,11.14,11.14,0,0,1,2.34-4,10,10,0,0,1,3.71-2.51A13.49,13.49,0,0,1,844.59,309.42Zm7,12.51a11.52,11.52,0,0,0-.86-4.63,6.49,6.49,0,0,0-2.47-3,7.09,7.09,0,0,0-6.41-.45,6,6,0,0,0-2.15,1.62,7.65,7.65,0,0,0-1.43,2.71,12.23,12.23,0,0,0-.52,3.71,12.57,12.57,0,0,0,.52,3.76,7.76,7.76,0,0,0,1.48,2.78,6.22,6.22,0,0,0,2.19,1.65,6.89,6.89,0,0,0,6.19-.4,6.46,6.46,0,0,0,2.52-2.92A11.25,11.25,0,0,0,851.59,321.93Z"/><path d="M885.55,324.69H881v6.89a3.25,3.25,0,0,1-.7,2.24,2.46,2.46,0,0,1-3.55,0,3.17,3.17,0,0,1-.68-2.22V312.85a3,3,0,0,1,.74-2.32,3.39,3.39,0,0,1,2.38-.7h6.32a17,17,0,0,1,4.32.43,6.57,6.57,0,0,1,2.58,1.38A6.19,6.19,0,0,1,894.1,314a8.21,8.21,0,0,1,.57,3.14,6.94,6.94,0,0,1-2.29,5.63Q890.09,324.69,885.55,324.69Zm-1.19-11.16H881V321h3.32a10,10,0,0,0,2.91-.36,3.41,3.41,0,0,0,1.78-1.2,3.56,3.56,0,0,0,.62-2.17,3.71,3.71,0,0,0-.95-2.63C888,313.89,886.56,313.53,884.36,313.53Z"/><path d="M932.58,326.86a7.12,7.12,0,0,1-1.14,4,7.58,7.58,0,0,1-3.33,2.76,12.52,12.52,0,0,1-5.19,1,11.67,11.67,0,0,1-5.95-1.36,7.93,7.93,0,0,1-2.7-2.61,5.94,5.94,0,0,1-1-3.18,2.15,2.15,0,0,1,2.2-2.18,1.89,1.89,0,0,1,1.32.5,4,4,0,0,1,.93,1.48,10,10,0,0,0,1,1.94,4.13,4.13,0,0,0,1.52,1.29,5.57,5.57,0,0,0,2.57.5,5.8,5.8,0,0,0,3.56-1,3.05,3.05,0,0,0,1.37-2.54,2.66,2.66,0,0,0-.74-2,4.67,4.67,0,0,0-1.91-1.16q-1.17-.39-3.12-.84a22.93,22.93,0,0,1-4.4-1.44,7.11,7.11,0,0,1-2.8-2.24,5.84,5.84,0,0,1-1-3.53,6.06,6.06,0,0,1,1.1-3.57,6.88,6.88,0,0,1,3.17-2.4,13.15,13.15,0,0,1,4.88-.83,12.19,12.19,0,0,1,3.88.55,8.35,8.35,0,0,1,2.71,1.48,6.29,6.29,0,0,1,1.58,1.93,4.51,4.51,0,0,1,.49,2,2.29,2.29,0,0,1-.62,1.58,2,2,0,0,1-1.55.71,1.82,1.82,0,0,1-1.29-.42,6,6,0,0,1-.95-1.39,6.3,6.3,0,0,0-1.6-2.15,4.67,4.67,0,0,0-3-.77,5.15,5.15,0,0,0-3.08.84,2.44,2.44,0,0,0-1.17,2,2,2,0,0,0,.4,1.27,3.44,3.44,0,0,0,1.09.91,8.52,8.52,0,0,0,1.41.6c.48.14,1.26.35,2.36.63a36.9,36.9,0,0,1,3.73,1.06,11.76,11.76,0,0,1,2.84,1.41,5.84,5.84,0,0,1,1.82,2.1A6.71,6.71,0,0,1,932.58,326.86Z"/><path d="M952.09,324.11V312.4a3.26,3.26,0,0,1,.68-2.24,2.27,2.27,0,0,1,1.76-.74,2.34,2.34,0,0,1,1.82.74,3.26,3.26,0,0,1,.67,2.24v12a11.09,11.09,0,0,0,.46,3.42,3.93,3.93,0,0,0,1.62,2.12,6,6,0,0,0,3.25.76c1.93,0,3.29-.52,4.09-1.54a7.58,7.58,0,0,0,1.19-4.66V312.4a3.27,3.27,0,0,1,.67-2.25,2.26,2.26,0,0,1,1.77-.73,2.37,2.37,0,0,1,1.81.73,3.27,3.27,0,0,1,.68,2.25v11.71a17.34,17.34,0,0,1-.55,4.76,7.36,7.36,0,0,1-2.1,3.36,8.26,8.26,0,0,1-3.09,1.79,13.42,13.42,0,0,1-4.12.56,17.13,17.13,0,0,1-4.83-.6,7.74,7.74,0,0,1-3.3-1.88,7.57,7.57,0,0,1-1.88-3.25A16.46,16.46,0,0,1,952.09,324.11Z"/><path d="M1015.42,324.27v4.67a5,5,0,0,1-.18,1.49,2.39,2.39,0,0,1-.67,1,6.14,6.14,0,0,1-1.26.86,19.62,19.62,0,0,1-4.25,1.75,17.34,17.34,0,0,1-4.45.54,14.38,14.38,0,0,1-5.11-.86,10.57,10.57,0,0,1-3.93-2.51,10.92,10.92,0,0,1-2.5-4,14.9,14.9,0,0,1-.87-5.23,15.45,15.45,0,0,1,.84-5.2,10.85,10.85,0,0,1,2.49-4,11,11,0,0,1,4-2.51,15.43,15.43,0,0,1,5.35-.87,13.18,13.18,0,0,1,4.35.65,9.65,9.65,0,0,1,3.07,1.65,7.44,7.44,0,0,1,1.78,2.11,4.27,4.27,0,0,1,.6,2,2.08,2.08,0,0,1-.69,1.58,2.31,2.31,0,0,1-1.66.66,2.2,2.2,0,0,1-1-.25,2.4,2.4,0,0,1-.82-.7,20.51,20.51,0,0,0-1.54-2.16,5.06,5.06,0,0,0-1.7-1.22,6.4,6.4,0,0,0-2.73-.5,7.46,7.46,0,0,0-3.06.59,6.25,6.25,0,0,0-2.3,1.71,7.64,7.64,0,0,0-1.46,2.74,12.07,12.07,0,0,0-.51,3.61,9.89,9.89,0,0,0,2,6.59,6.82,6.82,0,0,0,5.49,2.31,11.12,11.12,0,0,0,3.21-.45,16.69,16.69,0,0,0,3-1.28v-4h-3.82a4.12,4.12,0,0,1-2.08-.42,1.47,1.47,0,0,1-.71-1.41,1.73,1.73,0,0,1,.59-1.34,2.27,2.27,0,0,1,1.6-.53h5.6a7.27,7.27,0,0,1,1.74.18,2,2,0,0,1,1.15.81A3.26,3.26,0,0,1,1015.42,324.27Z"/><path d="M1049.7,331.41l-1.16-3.05h-9.9l-1.16,3.12a11,11,0,0,1-1.16,2.46,1.84,1.84,0,0,1-1.58.64,2.27,2.27,0,0,1-1.64-.68,2.06,2.06,0,0,1-.72-1.54,3.47,3.47,0,0,1,.17-1c.11-.35.29-.85.55-1.48l6.22-15.8.64-1.64a8.57,8.57,0,0,1,.8-1.58,3.21,3.21,0,0,1,1.11-1,3.94,3.94,0,0,1,3.42,0,3.25,3.25,0,0,1,1.11,1,7.63,7.63,0,0,1,.72,1.32c.19.47.44,1.1.73,1.88l6.36,15.71a7.87,7.87,0,0,1,.75,2.61,2.13,2.13,0,0,1-.71,1.55,2.46,2.46,0,0,1-2.69.5,2,2,0,0,1-.7-.57,5.34,5.34,0,0,1-.61-1.09C1050,332.22,1049.85,331.79,1049.7,331.41Zm-9.76-6.75h7.27l-3.67-10.05Z"/><path d="M1080.5,323.76h-1.72v7.82a3.24,3.24,0,0,1-.68,2.27,2.32,2.32,0,0,1-1.78.73,2.27,2.27,0,0,1-1.83-.76,3.4,3.4,0,0,1-.64-2.24V312.85a3.16,3.16,0,0,1,.71-2.31,3.21,3.21,0,0,1,2.31-.71h8a25.48,25.48,0,0,1,2.84.14,7.58,7.58,0,0,1,2.12.57,6.52,6.52,0,0,1,2,1.38,6.11,6.11,0,0,1,1.33,2.09,6.82,6.82,0,0,1,.46,2.51,6,6,0,0,1-1.54,4.35,8.72,8.72,0,0,1-4.65,2.31,8.84,8.84,0,0,1,2.5,2.06,21.37,21.37,0,0,1,2.14,2.89,22.41,22.41,0,0,1,1.46,2.78,5.37,5.37,0,0,1,.52,1.7,1.68,1.68,0,0,1-.31.95,2,2,0,0,1-.84.75,2.64,2.64,0,0,1-1.22.27,2.41,2.41,0,0,1-1.4-.39,3.93,3.93,0,0,1-1-1c-.27-.4-.64-1-1.1-1.76l-2-3.29a18,18,0,0,0-1.9-2.76,4.71,4.71,0,0,0-1.7-1.29A5.92,5.92,0,0,0,1080.5,323.76Zm2.83-10.23h-4.55v6.69h4.41a12.65,12.65,0,0,0,3-.3,3.52,3.52,0,0,0,1.85-1.05,3,3,0,0,0,.64-2,3.18,3.18,0,0,0-.51-1.79,3.14,3.14,0,0,0-1.43-1.15A10.34,10.34,0,0,0,1083.33,313.53Z"/><path d="M434.17,334.76c.6-6.23,2.32-11.45,7.09-15.31,6.86-5.55,13.56-11.3,20.46-16.78a6.81,6.81,0,0,0,2.93-6.8c-.92-8.61-1.59-17.24-2.19-25.88-.55-7.91,1-15.22,8.64-19.27,7.27-3.86,14.76-3.49,21.7,1.21,2.08,1.41,3.24,1.29,4.89-.74,21.44-26.32,49.13-41.63,82.81-45.2,25.28-2.68,49,3.81,71,16.15,16.44,9.23,30.2,21.78,42.13,36.32,9.49,11.54,3.91,27.11-10,32.18a23.78,23.78,0,0,1-14.65.33c-22.93-6-44.87-3.59-65.56,8.39-9.1,5.27-16.33,12.5-22.38,21-1.79,2.52-1.89,4.28.41,6.81,3.18,3.5,6.38,7,7.74,12,2.6,9.57-3.64,21.66-14.09,23-9.61,1.24-19.25,1.43-28.86,2.19-4,.32-6.28,1.73-8.21,5.07-4.67,8.06-9.34,16.16-14.58,23.87a18.16,18.16,0,0,1-26.7,4,20.46,20.46,0,0,1-5.87-8.54c-3.37-8.52-6.84-17-10.1-25.55a6.79,6.79,0,0,0-5.59-4.85c-9.12-1.87-18.18-4.08-27.25-6.26C439.26,350.05,434.05,343.22,434.17,334.76Z"/><path class="cls-1" d="M439.26,334.69c0,6.66,3.81,11.37,10.29,12.87,9.73,2.24,19.42,4.63,29.2,6.64,3.21.66,4.77,2.2,5.88,5.15,3.58,9.5,7.37,18.93,11.15,28.35,2.1,5.24,6,8.52,11.67,8.74a13.3,13.3,0,0,0,12.5-6.78c4.89-8.13,10.08-16.1,14.63-24.41,2.28-4.14,4.89-5.78,9.7-5.84,9-.1,17.94-1.06,26.91-1.72,5.23-.38,10-1.94,12.21-7.19,2.35-5.6,2-11.07-2.21-15.88-2-2.25-3.79-4.67-5.93-6.74s-2.49-3.75-.83-6.47c12.29-20.07,30.32-31.9,53-36.69,15.4-3.25,30.75-2.19,46,2,6.43,1.78,11.74-1.52,16-5.87,4.06-4.11,4.9-9.42,3-14.82-1.62-4.51-5.62-7.36-8.67-10.84-17.21-19.61-38.14-33.22-63.41-40.52-45.89-13.25-92,6.67-118.21,39-5.27,6.51-5.12,6.69-12.5,2.13-5.28-3.26-10.75-3.59-16.12-.69s-6.51,8.16-6.1,13.75c.7,9.63,1.41,19.26,2.54,28.85.39,3.33-.7,5.26-3.09,7.18-7,5.61-13.86,11.43-20.87,17C441.84,325.25,439.27,329.26,439.26,334.69Z"/><path d="M571.87,344.38c-13.34.82-25.29,1.64-37.26,2.24a7.8,7.8,0,0,0-7.08,4.34c-6,10.48-12.36,20.81-19.1,32.09-4.75-11.93-9.32-22.92-13.46-34.07-1.38-3.73-3.39-5.43-7.29-6.23-11.53-2.35-23-5.18-34.42-7.81-.16-2,1.32-2.46,2.24-3.23,8.42-7.06,16.82-14.14,25.38-21,2.32-1.87,3.31-3.74,3-6.77C482.82,294,482,284,481.14,274.08c-.2-2.29-.33-4.59-.58-8.08,6.52,4.14,12.27,7.68,17.88,11.41,2.56,1.7,3.77,1.33,5.31-1.46,26.53-48,84.28-65.58,133.11-40.74a124.82,124.82,0,0,1,40.65,33.31c.8,1,3,1.76,1.47,3.58a4.49,4.49,0,0,1-5,1.35,90.77,90.77,0,0,0-18.59-3.59c-36.58-2.89-77.3,12-96.8,52.68-1.51,3.15-1.47,5.32,1,7.92C563.66,334.59,567.28,339.11,571.87,344.38Z"/><path class="cls-1" d="M549.68,277.71c-10,4.25-18.87,7.61-27.34,11.75-4.82,2.36-8.41,2-12.75-1-7.86-5.46-16.16-10.3-24.77-15.72a25.32,25.32,0,0,0-.2,3.18c.84,8.95,1.47,17.93,2.68,26.83.64,4.66-.53,7.73-4.32,10.6-6.91,5.22-13.43,10.94-20.08,16.49-.86.72-2.13,1.74-2.1,2.58.07,1.82,2.05,1.25,3.19,1.53,8.89,2.16,17.76,4.41,26.74,6.15,3.62.71,5.33,2.46,6.56,5.73,3.62,9.63,7.52,19.15,11.4,28.95,1.94-1.21,2.54-2.81,3.38-4.2,4.54-7.56,9.24-15,13.52-22.76,1.78-3.23,4-4.17,7.51-4.32,10.22-.43,20.42-1.33,31.72-2.11-7.47-8.59-14.05-16.47-21-24-2.62-2.83-3-5.32-2-8.89C544.51,298.74,546.84,288.9,549.68,277.71Z"/><path class="cls-2" d="M652.48,250.7c-17.3-14.12-37.14-21.85-59.35-22.78-18.28-.78-35.15,4.49-50.73,13.92-14.34,8.68-26.39,19.67-34.31,34.69-.76,1.43-2.5,2.9-1.14,4.9,4.41,6.42,11.62,6.94,16.56.86A109,109,0,0,1,548,259.71c23.58-15.6,49.3-21.72,77.4-17C634.78,244.21,643.55,247.62,652.48,250.7Z"/><path class="cls-3" d="M551.23,287.3c31.87-29.1,67.86-35.58,108.71-25.62-45.75-31.18-104.59-11.86-128.46,19.73l23.46-9.87C553.67,276.9,552.64,281.31,551.23,287.3Z"/><path class="cls-4" d="M656.06,266.1c-.7-.55-.92-.86-1.21-.93-39.92-9.76-74.76-.81-103.8,28.62-4.61,4.68-4.72,11.65-5.67,17.78-.51,3.29,3.59,5.26,5.45,7.94,2.37,3.43,3.73,3,5.6-.75a91.33,91.33,0,0,1,38.79-40.34C614,268.16,634.27,264.8,656.06,266.1Z"/><path d="M1421.74,372.19c-4.06-2.16-8.49.21-13.13,1.07-7.4,1.38-13.75-1.24-19.06-6.44-1.16-1.14-1.93-2.4-4-2.45a22.89,22.89,0,0,1-17.38-8.57,6.58,6.58,0,0,0-6.41-2.53,16.91,16.91,0,0,1-15.36-6.71,6.29,6.29,0,0,0-5.41-2.67c-7.53-.18-14-3-18.81-8.83a5.66,5.66,0,0,0-5.18-2.15,17.71,17.71,0,0,1-14.31-5.89,5.82,5.82,0,0,0-5.25-1.93c-6.61.4-12-2.35-16.44-7a6.32,6.32,0,0,0-5.13-2.22,23.94,23.94,0,0,1-17.51-7.27,8.81,8.81,0,0,0-6.12-2.68,21.36,21.36,0,0,1-15.23-7.64,35.62,35.62,0,0,0-8.34-6.89c-9.63-6.23-12.72-15.69-8.7-26.5.46-1.24,0-2.25-.07-3.39-.49-5.51,1.12-10.29,5.85-13.39,2.47-1.61,3.69-2.94,3.11-6.24-.79-4.45,1.6-8,5.12-10.72,1.21-.94,2.69-1.35,2.59-3.7-.43-9.82,5.29-16.16,14.94-16.57a13.27,13.27,0,0,0,7.66-2.72c6.44-4.57,13.57-3.86,19.8,0,7.8,4.81,15.17,8.83,25,9.59,8.15.64,15,8.27,24.27,7.95,2.18-.08,4.78,1.66,6.2,3.85,1.18,1.82,2.76,2,4.65,2.24,6.87.82,12.65,3.33,14.54,10.81.5,2,1.63,2.19,3.29,2.14,8.58-.27,16.61,1,22.58,8.09,1,1.2,2.46.79,3.76.72,6.52-.3,11.88,1.63,14.73,8,1,2.25,2.5,2.1,4.49,1.78,7.85-1.27,14.85.48,20.55,6.31a4.66,4.66,0,0,0,3.28,1.87c10.85.74,19.78,4.31,23,16.11.25.95,1.47,1.69,2.35,2.41,6.79,5.58,8.62,13.8,4.27,21.35-1.27,2.2-.82,3.46.3,5.29,5,8,3.8,12.57-4.29,17.63-1.08.67-2.17.92-1.41,2.95,3.75,10,1.28,15.92-8.54,20.17-3.64,1.57-6.38,2.73-6.36,7.71C1435.58,369.05,1428.71,372.25,1421.74,372.19Z"/><path class="cls-1" d="M1236.41,248.36c-5.26,1.34-11.12,2.61-11.7,8.3-.54,5.36-1.61,10.44-2.61,15.66-1.1,5.72,2.63,11,7.49,14.38,4.33,3,8.54,6,12.12,10,3.32,3.71,8.06,5.28,13.11,5.09a5.91,5.91,0,0,1,5.5,2.37,18.68,18.68,0,0,0,18.13,7.12c2.16-.32,3.2.25,4.43,2,4.3,6.22,10.42,8.68,17.81,7.17,2.1-.43,2.81.14,3.9,1.72,3.66,5.29,8.69,7.74,15.1,5.84,2.36-.7,3.12.28,4.25,2,4.71,7.22,11.51,10.37,20,9.21,2.43-.33,3.39.35,4.51,2.44,3.12,5.88,9.11,8.64,15.59,6.85,2.89-.79,4-.11,5.54,2.16,3.81,5.64,9,9.63,16.15,9.06,3-.25,4.33.37,6,2.64,4.42,6.13,13.08,9,19,5.84a10.4,10.4,0,0,1,9.2-.68,10.53,10.53,0,0,0,10.72-2.48c3-2.87-.6-5.42-1.12-8.14a4.73,4.73,0,0,1,.07-.88c4.48-.55,9.08-1.29,13.07-3.8,7.27-4.57,7.71-10.69,1.11-16.15-2-1.65-4.22-3-7-4.93,4-.65,7,.94,10.09.12,3.3-.88,6.76-1.58,7.67-5.43.87-3.64-1-6.44-3.75-8.69-2.25-1.88-4.58-3.67-7.14-5.7,10-1,13.14-6.9,8.33-14.72a11.49,11.49,0,0,0-5.13-4.6c-1.47-.66-2.65-1.47-2.34-3.33.64-3.94-1.87-6.3-4.53-8.27-6-4.43-12.42-7.13-19.85-2.74.26-6.23-2.88-9.29-10.15-10.36a22.78,22.78,0,0,0-15.93,3.58c2.05-10.24-3.87-16.29-17.78-11.71-1.46-10-10.45-12.28-30-7.65,5.54-8.69,2.86-14.19-7.69-15.75a10.44,10.44,0,0,0-2.49-.17c-2.08.2-3.18-.8-4.4-2.46-3.29-4.49-8.16-6-13.23-4-2.33.94-3.32.56-4.89-1.23-5.63-6.43-12.74-8.89-21.12-6.63-2.45.66-3.94.22-5.44-1.85-3.55-4.9-8.55-7.86-14.3-9.49-4-1.13-8.39-1.36-11.29,1.79-2.75,3-5.13,3.92-9.19,3.34-5-.71-10.15,3.17-11.43,7.27s1,6.21,4.5,7.68C1231.58,237.36,1230.43,239.63,1236.41,248.36Z"/><path d="M1362,313.27a14.88,14.88,0,0,0,1.46,1c8.8,4.65,9.48,14.69,1.43,20.79a7.07,7.07,0,0,1-7.51.91c-8.42-3.57-16.88-7.07-25.25-10.76-4.26-1.88-5.77-5.36-4.65-9.85,2-8.15,6-14.19,15.23-15.73a59.12,59.12,0,0,0,15.69-4.87,19,19,0,0,0,4.29-2.49c1.54-1.33,2.84-3.18,1.68-5.27-1.28-2.27-3.5-1.63-5.3-.72-4.78,2.42-8.94,1.74-12.77-2-3.1-3-3.39-6.27-1.24-9.91,4.85-8.24,16.44-12,25.92-8.49,10.73,4,17.06,14.12,15.14,24.11-2,10.71-8.75,17.22-18.76,20.72q-2.55.9-5.09,1.84C1362.14,312.62,1362.12,312.88,1362,313.27Z"/><path class="cls-4" d="M1349.52,311c3.35-.54,5.73-.94,8.11-1.31,7.73-1.18,14.89-3.61,20.26-9.67,7.42-8.39,6.56-20.57-1.86-27.5s-21.06-6.05-27.15,2.2c-1.34,1.83-3.18,3.87-1.09,6.23,1.88,2.13,4,4.11,7.31,3.1,1.11-.35,2.21-.72,3.3-1.14,3.23-1.25,6.42-1.34,8.48,1.8,2.22,3.4,1.23,6.68-1.53,9.47a18.19,18.19,0,0,1-5.85,3.71,78.49,78.49,0,0,1-16.67,5c-6.66,1.28-9.91,5.63-11.77,11.51-1.18,3.76-.51,6.71,3.72,8.39,7.27,2.88,14.37,6.15,21.59,9.14,5.22,2.16,7.45,1,9.82-4.68,2.17-5.2,1.24-7.38-3.88-9.85C1358.37,315.55,1353.93,314.61,1349.52,311Z"/><path d="M1268.65,273.14a15.07,15.07,0,0,0,1.78,1.4c8.83,4.19,10,13.81,2.53,20.3a7.9,7.9,0,0,1-8.85,1.27c-8.12-3.43-16.2-7-24.33-10.39-4.16-1.75-5.56-4.88-5.09-9.19a18.59,18.59,0,0,1,13.63-16c5-1.38,9.93-2.77,14.84-4.33a29,29,0,0,0,5.86-2.74c2.28-1.37,4-3.45,2.66-6.19s-3.81-1.23-5.71-.43c-4,1.67-7.7,1.71-11.23-1.16-4.33-3.52-4.89-7.06-1.7-11.7,6.14-9,18.11-11.59,28.49-6.28,10.13,5.19,14.68,16.22,11,26.53-3,8.67-9.23,14-17.75,16.87C1272.94,271.72,1271.06,272.34,1268.65,273.14Z"/><path class="cls-4" d="M1256.59,271.41c4.58-.73,7.86-1.12,11.08-1.79,10.31-2.17,18.81-6.62,22.1-17.67,2.47-8.29-1.73-17.4-10.13-21.6-8.24-4.11-18.49-2-23.41,4.86-1.31,1.83-2.42,3.89-1,6,1.54,2.26,3.68,4,6.72,3.37a41.44,41.44,0,0,0,4.28-1.33c3-.93,6.19-1.14,8.1,1.83,2,3.16,1.16,6.39-1.22,9.18a15.1,15.1,0,0,1-5.29,3.66,75.07,75.07,0,0,1-17.6,5.45c-6.2,1.27-9.44,5.07-11.41,10.58-1.85,5.16-1.06,7.3,3.94,9.5,7,3.08,14.08,6,21.14,9,5.17,2.17,7.17,1.18,9.72-4.76,2.26-5.25,1.32-7.49-3.84-9.84C1265.76,276,1261.38,274.83,1256.59,271.41Z"/><path d="M1284.76,287.13c1.34-11.93,6-25,16.57-35.42,7.36-7.24,16.58-8.89,24.73-5.07s12.91,12.12,12.16,22.21a58.51,58.51,0,0,1-15.37,36c-7.06,7.72-16.19,9.84-24.88,6.32C1289.46,307.74,1284.77,300.11,1284.76,287.13Z"/><path class="cls-4" d="M1334.67,271.72c.31-12-2.91-18.41-9.45-21.78-6.86-3.55-13.54-2.62-19.13,2.15-12.07,10.31-17.69,24-17.93,39.62-.12,7.86,4.2,13.49,11.53,16.54s13.74.85,19.21-4.33C1328.93,294.41,1333.23,282.23,1334.67,271.72Z"/><path d="M1377.55,325.27c.66-9.4,5.26-20.67,13.12-30.5,7.68-9.6,17.5-12.65,26.81-9s14,12,13,24.46A55.46,55.46,0,0,1,1414.86,345c-7.46,7.75-16.1,9.4-25,5.51C1381.57,346.91,1377.15,339.08,1377.55,325.27Z"/><path class="cls-4" d="M1380.74,326.34c-.06,11.24,3,17.25,9.14,20.44s12.49,3.15,18.48-.67c11.13-7.08,21.1-30,18.78-43-2.58-14.38-17.49-20.32-28.78-11.07C1386.74,301.54,1382.42,314.85,1380.74,326.34Z"/><path d="M1321,271.57a38.61,38.61,0,0,1-8.89,20.06,6.18,6.18,0,0,1-7.22,2c-2.94-1.12-3.48-4-3.2-6.67a38.19,38.19,0,0,1,8.5-20.38c1.89-2.33,4.38-3.72,7.47-2.69C1321.17,265,1320.82,268.12,1321,271.57Z"/><path class="cls-1" d="M1305.11,286.21c0,1.69-.44,3.47,1.14,4.28,1.91,1,3.17-.63,4.13-1.89a35.44,35.44,0,0,0,7.38-17.67c.16-1.41.46-3.24-1.31-3.92s-2.83.7-3.76,1.82A35.7,35.7,0,0,0,1305.11,286.21Z"/><path d="M1394.39,326.14a37,37,0,0,1,8.71-20.29c1.89-2.21,4.41-3.78,7.51-2.28,2.83,1.36,3.33,4.08,3.06,6.82a37.2,37.2,0,0,1-8.28,20c-2,2.44-4.4,4.35-7.76,3C1394.44,332.06,1394.32,329.1,1394.39,326.14Z"/><path class="cls-1" d="M1397.51,325.81c.26,1.65-.5,3.71,1.59,4.39,1.88.62,3.07-.94,4.07-2.24a37.75,37.75,0,0,0,7.27-17.23c.25-1.52.19-3.23-1.32-4s-2.85.37-3.83,1.57C1401.1,313.47,1398.85,319.46,1397.51,325.81Z"/><path d="M398.39,535.56c8.87,2.29,19.17,5,29.47,7.64,6.76,1.77,13.57,3.39,20.25,5.44,3.58,1.1,6.23.33,9.12-1.89q21.19-16.25,42.63-32.21c4.31-3.22,9.12-4.78,14.5-3.11,2.12.66,3.81-.16,5.71-.91,11.37-4.51,21.6.79,24.31,12.76Q556.32,576.07,568,628.91c1.76,8-.68,14.67-7.2,19.85Q530.28,673,499.86,697.3c-7.11,5.72-14.43,7.53-23.6,5.07-25.71-6.9-51.62-13-77.44-19.51-7.78-2-12.52-6.45-14.3-14.71-7.43-34.47-15.27-68.85-22.91-103.27-2.68-12.12,3.44-20.82,15.73-22.17a10.68,10.68,0,0,0,6.16-2.66C386.83,537.22,393.07,535.22,398.39,535.56Z"/><path class="cls-1" d="M380,547.58c-10.34-.12-15.79,6.37-13.63,16.16,7.6,34.43,15.3,68.84,22.85,103.28,1.33,6.09,4.8,9.51,10.76,11,26.32,6.57,52.64,13.16,78.9,20,6,1.55,11.05.6,15.86-3.24,20.7-16.52,41.4-33,62.26-49.37,5.53-4.33,7.49-9.58,6-16.2q-11.77-52.84-23.71-105.65c-2-8.71-10.43-12.23-18.23-7.74-1.89,1.08-3.51,1.72-5.59.94-5.6-2.09-10.3-.33-14.82,3.15-14.13,10.88-28.41,21.56-42.53,32.43a8.92,8.92,0,0,1-8.69,1.76c-16.37-4.48-32.82-8.67-49.26-12.89-5.94-1.52-11.35-.58-15.19,4.64C383.56,547.81,381.88,547.92,380,547.58Z"/><path d="M527.63,526.46c5.15,23.08,10.22,45.82,15.29,68.56,2.57,11.47,5.11,23,7.76,34.41.72,3.08.09,5.13-2.57,7.22q-29.88,23.42-59.44,47.22a8.61,8.61,0,0,1-8.56,1.83c-24.31-6.33-48.65-12.56-73.07-18.44-4.27-1-5.93-3-6.79-7-6.54-29.93-13.22-59.83-19.85-89.74-.15-.65-.15-1.33-.29-2-.56-2.58-2.38-5.83-1.43-7.57,1.5-2.77,4.71,0,7.16.23,2.79.29,4.07-1.36,5.1-3.2,2.76-4.94,6.41-5.39,11.65-3.91,16.64,4.73,33.46,8.83,50.15,13.4a8.4,8.4,0,0,0,8.22-1.7q23.15-17.82,46.47-35.41c1.65-1.25,3.17-3.24,5.62-1.35,4.4,3.38,8.43,2.94,12.18-1.13A11.75,11.75,0,0,1,527.63,526.46Z"/><path class="cls-3" d="M420.28,614.72c-.37-1.13-.83-2.19-1.08-3.3-2.66-11.85-5.41-23.68-7.84-35.58-.56-2.7-1.65-4.1-4.23-4.68-6.48-1.47-13-2.89-19.39-4.62-3-.82-3.93-.51-3.1,2.84,1.64,6.62,3,13.31,4.46,20q7.63,34.36,15.28,68.71c.52,2.33,1.1,4.08,4.07,4.81q35.61,8.76,71.1,18a7.86,7.86,0,0,0,7.7-1.76q27.84-22.35,56-44.39c2.62-2.05,3.33-4,2.59-7.18-3.77-16.37-7.32-32.78-11-49.17-3.26-14.57-6.57-29.12-9.82-43.5a2.75,2.75,0,0,0-2.6,1c-19.38,15.22-38.8,30.39-58.1,45.7a8.57,8.57,0,0,1-8.66,1.77c-6.37-1.87-12.89-3.2-19.35-4.74-5.84-1.39-5.75-1.39-4.64,4.72,1.87,10.34,3.59,20.71,5.55,32.09-1.38-1.19-1.9-1.57-2.34-2-2.44-2.49-4.7-6.82-7.34-7.07-3.78-.34-3.79,5.34-6.22,7.84A5,5,0,0,1,420.28,614.72Z"/><path class="cls-1" d="M457.87,578.93a4.36,4.36,0,0,0,3.62-1.27q25.75-20.16,51.52-40.3c.79-.62,2.55-1.15,1.54-2.54a3.17,3.17,0,0,0-3.95-1.28,20,20,0,0,0-3.28,2.24q-23.08,17.51-46.12,35.07a7,7,0,0,1-6.87,1.46c-7.67-2.2-15.41-4.15-23.13-6.18-10.45-2.74-20.93-5.4-31.36-8.25-3.62-1-5.35,1.58-5.94,3.83s2.44,1.95,4,2.34c11.75,3,23.52,5.91,35.29,8.83Q445.51,575.92,457.87,578.93Z"/><path class="cls-2" d="M428.89,598.51c-1.28-7.46-2.28-13.51-3.37-19.55-.76-4.21-4.76-4.77-7.38-4.37-3,.45-.21,3.4-.24,5.24a14.15,14.15,0,0,0,.85,3.88c1.46,5.32,1.73,11,4.05,16.46C424.61,598.44,425.33,595.3,428.89,598.51Z"/><path d="M459.9,595.1c-.06-1.71,0-3.3,2.09-3.4,2.26-.12,2.6,1.8,3,3.38,1.76,7.79,3.42,15.6,5.16,23.4q5.38,24.1,10.8,48.21c.32,1.46.55,2.94.83,4.42s.09,3.14-1.77,3.53-2.58-1.11-2.94-2.65q-1.53-6.57-3-13.15-6.75-30.47-13.48-60.93C460.34,596.93,460.1,596,459.9,595.1Z"/><path d="M1461.05,592.33c-.43,6.56-3.28,11.74-9.2,14.95-3.65,2-7.38,3.83-11.14,5.61-12.49,5.93-18.53,16.21-19.86,29.57a96.63,96.63,0,0,1-2.16,14.78A14.78,14.78,0,0,1,1405.14,668a14.56,14.56,0,0,1-13.85-10.27c-2-6.28-1.94-12.83-2.59-19.25-1.79-17.47-6.24-23-23.42-27.56-6.13-1.62-11.18-4.57-13.56-10.64-3-7.54-.49-15.16,6.28-19.73a49.89,49.89,0,0,1,8.85-4.53c10.72-4.42,16.55-12.35,17.88-23.81a94.84,94.84,0,0,1,2.11-10.77c1.84-7.68,6.77-12,14.18-12.52,6.69-.5,13.22,3.8,15.74,10.79,2.08,5.77,3.67,11.72,5.6,17.55,3.29,9.9,10.12,15.68,20.4,17.62,3.72.7,7.5,1.37,10.84,3.52C1458.7,581.68,1460.84,586.41,1461.05,592.33Z"/><path class="cls-1" d="M1457.09,592.59c.09-7.27-4-12-13.69-13.5-15.05-2.41-22.86-11.65-26.66-25.51a122.19,122.19,0,0,0-4.16-13.31,11.36,11.36,0,0,0-11.85-7.35c-5.23.54-8.83,3.83-10.1,9.55-.86,3.89-1.48,7.84-2.13,11.77-1.9,11.48-7.65,20-18.55,24.79-2.89,1.26-5.81,2.51-8.57,4-4.82,2.65-7.21,6.9-6.74,12.37s4,9,9.09,10.77c3.62,1.24,7.34,2.14,11,3.28,7.16,2.22,11.89,7,14.57,14a62.51,62.51,0,0,1,3.37,14c.87,6.25.46,12.67,2.36,18.78,1.47,4.72,5.35,7.7,9.91,7.69a10.24,10.24,0,0,0,9.88-7.75c1.38-4.66,1.48-9.52,2-14.31,1.67-15.26,8.93-26.56,23.07-33.13,3.62-1.68,7.2-3.47,10.68-5.43A12.49,12.49,0,0,0,1457.09,592.59Z"/><path d="M1449.45,481.87a14.39,14.39,0,0,1,14.26,9.74,53.43,53.43,0,0,1,1.79,6.23c1,4.19,3.47,6.32,7.74,7.31,8.16,1.9,11.82,6.13,12.62,13.42.75,6.86-2.27,12.52-9.7,15.81-6.86,3-10,7.48-10.69,15.11-1.12,12-9.61,17.44-19.63,13.84-6.94-2.49-8.23-8.57-9.21-14.77-.28-1.8-.2-3.66-.38-5.48-.36-3.69-2.19-5.88-6-7-8.84-2.62-12.53-7-12.94-14.38-.39-7,3.08-12.17,10.92-15.59,3.93-1.72,5.81-4.27,6.39-8.6C1436.06,487,1441,482.05,1449.45,481.87Z"/><path class="cls-1" d="M1481.94,519.89c-.09-5.73-2.9-9.64-9.17-10.74-6.79-1.2-10.06-5.17-11.51-11.41a33,33,0,0,0-1.6-5.24,10.51,10.51,0,0,0-12.15-6.42c-6.84,1.28-8.31,6.54-8.94,12.2s-3.16,9.22-8.3,11.42c-6.8,2.91-9.36,6.63-8.87,12.29.55,6.38,4.75,9.18,10.46,10.34,6,1.22,7.94,5.49,8.44,10.87.31,3.31.31,6.65,1.27,9.88a9.58,9.58,0,0,0,11,7.14c5.29-.72,8.64-4.06,8.91-10.94.37-9.3,4.33-15.26,13.1-18.53A10.6,10.6,0,0,0,1481.94,519.89Z"/><path d="M1499.92,648.61c-.05,6.37-2.56,11.84-8.43,14.15-8.29,3.27-11.21,8.91-12.14,17.43-1.16,10.58-9.12,14.93-19.14,11.91-5.35-1.61-8-5.69-8.42-10.69-.74-9.26-3-15.65-13.41-19.39-10.08-3.63-9.22-20.07,1-25.15,6.75-3.35,9.36-7.87,10.52-14.75s6.7-11.11,13.25-11.48c6.73-.38,12.48,3.58,14.86,10.29a32.58,32.58,0,0,1,1.24,4.31c1.06,5.09,3.84,8,9.19,9.07C1495.79,635.82,1499.82,641.33,1499.92,648.61Z"/><path class="cls-1" d="M1495.92,648.54c-.09-5.65-3-9.39-9.25-10.59-6-1.15-9.39-4.48-10.84-10.23a39.15,39.15,0,0,0-2.3-7.09c-2.06-4.4-5.79-6.26-10.57-5.91s-7.56,3.11-9.09,7.35a17.82,17.82,0,0,0-1.09,4.86c-.34,6-3.32,9.7-8.88,12-6.08,2.5-8.69,6.59-8.36,11.7.35,5.44,3.51,8.69,10.25,10.55,6,1.65,8,4.17,8.69,10.57.34,3.3.63,6.63,1.28,9.87a8.34,8.34,0,0,0,5.4,6.63c6.88,2.59,13.66-.42,14.09-7.81.65-11,5.15-18,15.43-21.9C1494.78,657,1496,652.84,1495.92,648.54Z"/><path d="M1448.65,592.28c-.09,2.25-1.84,3.58-3.75,4.61-3.22,1.73-6.52,3.34-9.82,4.9-16.67,7.9-24.55,21.69-26.55,39.45-.41,3.63-.71,7.28-1.22,10.9-.2,1.46-.69,3.14-2.68,3-1.67-.15-1.86-1.67-2.06-3-1.13-7.56-1.22-15.23-2.76-22.77-3.26-15.93-12-26.33-28.43-29.54-3.26-.64-7.79-.8-8.33-5.08-.57-4.49,4-5.41,7-6.52,18.1-6.58,25.73-20.46,27.64-38.57a19.16,19.16,0,0,1,1.47-6.27c1.36-2.82,3.54-3,5.33-.3a16.87,16.87,0,0,1,1.88,4.59c1.18,3.81,2.13,7.7,3.35,11.5,4.76,14.74,13.83,24.84,29.79,27.48a35.61,35.61,0,0,1,6.25,1.68A4,4,0,0,1,1448.65,592.28Z"/><path class="cls-3" d="M1405,640.12c2.62-21,13.58-35.25,32.79-43.32a24.09,24.09,0,0,0,4-2c1.15-.75,3.4-.87,2.92-2.8-.39-1.6-2.37-1.6-3.82-1.81-18.7-2.65-29.48-13.93-34.71-31.5-1.24-4.16-1.82-8.6-4.13-12.67-1.36,1.9-1.2,3.78-1.41,5.57-2.18,18.45-10.46,32.41-28.62,39.24-1.91.71-5.11,1.2-5,3.41.15,2.42,3.45,2.07,5.38,2.47,16,3.32,25.82,13,29.71,28.78C1403.36,630.29,1404.09,635.23,1405,640.12Z"/><path d="M1473.51,519.64c0,2.27-1.56,3.23-3,3.78-11.56,4.34-16.83,12.89-17.13,24.94,0,1.43-.24,3.43-2.16,3.4s-1.94-2-2.15-3.46c-.55-3.61-.72-7.28-1.44-10.85-1.35-6.59-5.21-10.93-11.94-12.62-2.26-.57-5.52-.47-5.77-3.72-.24-3,2.81-3.41,4.82-4.26,7.37-3.11,10.87-8.87,12-16.49.34-2.3-.28-5.7,3-5.93,3.13-.22,3,3.21,3.47,5.24,2.15,9.24,6.8,15.8,16.86,17.23C1471.73,517.14,1473.36,517.7,1473.51,519.64Z"/><path class="cls-3" d="M1451.55,537.58c2.64-8.82,9.43-13.27,17-17.38-10.48-2-15.53-9-18.54-18.34-1.66,9.26-6.8,15.27-15.3,18.94C1444,522.93,1449,528.72,1451.55,537.58Z"/><path d="M1465.54,680.74c-1.91-.19-1.85-1.71-2-3-.59-3.77-.94-7.58-1.68-11.31-1.36-6.82-5.26-11.33-12.3-12.77a13.68,13.68,0,0,1-3.32-1.06c-3.09-1.52-3.13-3.49-.17-5.48a9,9,0,0,1,1.78-.89c8.19-3.09,12.3-9.18,13.14-17.73a22.86,22.86,0,0,1,.78-3.4c.27-1,.8-1.87,2-2a2.48,2.48,0,0,1,2.67,1.81c.76,2.2,1.44,4.42,2.09,6.65,2.19,7.47,6.56,12.52,14.65,13.8,1.82.29,4.22.49,4.41,3.21.18,2.55-1.84,3.44-3.67,4.13-11,4.2-15.66,12.69-16.26,24C1467.49,678.34,1467.68,680.17,1465.54,680.74Z"/><path class="cls-3" d="M1447.54,649.78c10.44,2.12,15.8,7.61,18.15,16.59,3-8.57,9.41-13.39,17.15-17.26-10.85-1.93-15.63-9.33-18.64-18.66C1462.68,639.75,1457.66,645.88,1447.54,649.78Z"/></svg>