<svg id="Layer_1" data-name="Layer 1" xmlns="http://www.w3.org/2000/svg" viewBox="0 0 256 184"><defs><style>.cls-1{fill:#fff;}.cls-2{fill:#fdd448;}.cls-3{fill:#fd4d9e;}.cls-4{fill:#28a6fa;}</style></defs><title>Artboard 1</title><path d="M8.65,119.9c.53-5.54,2.06-10.17,6.29-13.6,6.1-4.93,12-10,18.18-14.91a6,6,0,0,0,2.6-6c-.82-7.65-1.42-15.32-1.95-23-.48-7,.91-13.52,7.67-17.11a17.77,17.77,0,0,1,19.28,1.07c1.84,1.25,2.87,1.15,4.34-.65,19-23.38,43.64-37,73.55-40.15,22.45-2.38,43.47,3.39,63,14.35,14.6,8.19,26.82,19.34,37.42,32.25,8.42,10.25,3.47,24.08-8.9,28.59a21.2,21.2,0,0,1-13,.29c-20.37-5.36-39.86-3.19-58.23,7.44A63.35,63.35,0,0,0,139,107.13c-1.59,2.24-1.68,3.81.36,6.05,2.83,3.11,5.67,6.22,6.88,10.66,2.31,8.5-3.23,19.24-12.51,20.43-8.54,1.1-17.1,1.27-25.64,1.94-3.57.28-5.57,1.54-7.29,4.5-4.14,7.17-8.3,14.36-12.94,21.2a16.13,16.13,0,0,1-23.72,3.56A18.29,18.29,0,0,1,59,167.88c-3-7.56-6.08-15.09-9-22.69a6,6,0,0,0-5-4.31c-8.11-1.66-16.16-3.62-24.2-5.56C13.17,133.48,8.54,127.41,8.65,119.9Z"/><path class="cls-1" d="M13.16,119.83c0,5.92,3.39,10.1,9.15,11.43,8.63,2,17.24,4.12,25.93,5.9a6.35,6.35,0,0,1,5.22,4.57c3.18,8.44,6.55,16.81,9.91,25.19,1.86,4.65,5.32,7.56,10.36,7.75a11.8,11.8,0,0,0,11.1-6c4.34-7.22,9-14.3,13-21.68,2-3.68,4.34-5.14,8.61-5.19,8-.09,15.93-.94,23.9-1.53,4.65-.34,8.88-1.72,10.84-6.38,2.09-5,1.79-9.83-2-14.11-1.76-2-3.36-4.15-5.27-6s-2.21-3.32-.73-5.74c10.91-17.83,26.93-28.33,47.09-32.59,13.67-2.89,27.3-1.94,40.81,1.78,5.71,1.58,10.43-1.35,14.25-5.21,3.61-3.65,4.35-8.37,2.63-13.17-1.44-4-5-6.53-7.7-9.62a116.46,116.46,0,0,0-56.32-36C133.23,1.47,92.24,19.16,69,47.87c-4.69,5.79-4.55,6-11.11,1.9-4.69-2.9-9.54-3.19-14.32-.62s-5.78,7.25-5.41,12.22c.62,8.55,1.25,17.11,2.25,25.62.35,3-.62,4.67-2.74,6.37-6.23,5-12.31,10.16-18.54,15.15C15.45,111.45,13.18,115,13.16,119.83Z"/><path d="M130.94,128.44c-11.84.73-22.46,1.46-33.09,2a6.92,6.92,0,0,0-6.29,3.86c-5.37,9.3-11,18.48-17,28.49-4.22-10.59-8.28-20.35-11.95-30.25-1.23-3.32-3-4.83-6.48-5.54-10.24-2.09-20.39-4.59-30.57-6.94-.14-1.75,1.17-2.18,2-2.86,7.48-6.27,14.94-12.56,22.54-18.68,2.06-1.66,2.94-3.32,2.66-6-.94-8.82-1.65-17.66-2.43-26.5-.18-2-.29-4.07-.51-7.17C55.64,62.51,60.74,65.65,65.73,69c2.27,1.5,3.35,1.17,4.72-1.3C94,25.06,145.29,9.42,188.66,31.48a110.7,110.7,0,0,1,36.1,29.59c.71.88,2.68,1.56,1.31,3.18a4,4,0,0,1-4.44,1.2,81,81,0,0,0-16.51-3.2c-32.49-2.56-68.66,10.65-86,46.79-1.34,2.8-1.31,4.73.93,7C123.65,119.74,126.86,123.76,130.94,128.44Z"/><path class="cls-2" d="M111.23,69.23C102.34,73,94.48,76,87,79.67c-4.28,2.09-7.46,1.76-11.32-.92-7-4.85-14.35-9.15-22-14a22.53,22.53,0,0,0-.18,2.82c.75,8,1.3,15.92,2.38,23.83.57,4.14-.47,6.87-3.84,9.42-6.13,4.63-11.92,9.71-17.83,14.64-.76.64-1.89,1.55-1.86,2.29.06,1.62,1.82,1.11,2.83,1.36,7.89,1.92,15.78,3.92,23.75,5.47,3.22.62,4.73,2.18,5.83,5.08,3.21,8.55,6.67,17,10.12,25.71,1.73-1.07,2.26-2.49,3-3.72,4-6.72,8.21-13.37,12-20.22,1.58-2.87,3.52-3.71,6.67-3.84,9.07-.38,18.13-1.18,28.17-1.88-6.63-7.62-12.48-14.62-18.66-21.3-2.33-2.52-2.69-4.73-1.8-7.91C106.64,87.9,108.71,79.16,111.23,69.23Z"/><path class="cls-3" d="M202.54,45.24A87.48,87.48,0,0,0,149.82,25c-16.23-.68-31.21,4-45,12.37C92,45.08,81.33,54.84,74.3,68.18c-.67,1.27-2.22,2.58-1,4.35,3.91,5.71,10.32,6.17,14.7.76a97.3,97.3,0,0,1,21.76-20.05C130.69,39.38,153.54,34,178.5,38.1,186.82,39.48,194.6,42.5,202.54,45.24Z"/><path class="cls-2" d="M112.61,77.74C140.92,51.9,172.88,46.15,209.16,55,168.53,27.3,116.27,44.46,95.07,72.51l20.83-8.76Z"/><path class="cls-4" d="M205.71,58.92c-.61-.49-.81-.77-1.07-.83-35.45-8.67-66.4-.72-92.19,25.42-4.09,4.15-4.19,10.35-5,15.79-.45,2.92,3.2,4.67,4.84,7,2.11,3.05,3.32,2.66,5-.66a81.16,81.16,0,0,1,34.45-35.83C168.39,60.75,186.36,57.76,205.71,58.92Z"/></svg>